# xmcd CD database file
#
# Track frame offsets:
#	150
#	14152
#	29582
#	50275
#	75590
#	102632
#	125290
#	148587
#	157532
#	171900
#	191107
#	214815
#
# Disc length: 3323 seconds
#
# Revision: 1
# Processed by: cddbd v1.5.1PL2 Copyright (c) Steve Scherf et al.
# Submitted via: CDex 1.51
#
DISCID=a40cf90c
DTITLE=nil - 12 INPLOSION
DYEAR=1900
DGENRE=Rock
TTITLE0=INPLOSION TEENAGE GIRL
TTITLE1=It's a blue is a true
TTITLE2=Hate Beat !
TTITLE3=金星
TTITLE4=夜の色
TTITLE5=(愛は)ミラーボール
TTITLE6=garden
TTITLE7=The past inplosion
TTITLE8=It's a true is a true
TTITLE9=烏の目
TTITLE10=サーカス
TTITLE11=Birthday
EXTD=
EXTT0=
EXTT1=
EXTT2=
EXTT3=
EXTT4=
EXTT5=
EXTT6=
EXTT7=
EXTT8=
EXTT9=
EXTT10=
EXTT11=
PLAYORDER=
